<svg width="186" height="283" viewBox="0 0 186 283" fill="none" xmlns="http://www.w3.org/2000/svg">
<g clip-path="url(#clip0_37_548)">
<path d="M185.247 47.3484C185.247 47.3484 186.187 65.7882 183.943 72.5178C175.896 80.1772 154.385 97.5666 154.385 97.5666C153.752 98.0413 153.285 98.7016 153.05 99.4545C152.814 100.207 152.822 101.015 153.073 101.762C153.324 102.51 153.804 103.161 154.447 103.623C155.089 104.085 155.862 104.334 156.654 104.336C157.412 104.365 158.156 104.139 158.767 103.693C166.056 97.9084 185.186 83.3636 185.186 83.3636C185.186 83.3636 186.93 100.155 183.67 110.825C174.572 119.369 149.391 135.286 145.333 139.864C145.237 151.263 145.282 278.969 145.282 278.969C145.282 280.98 144.029 282.583 142.3 282.583C141.021 282.583 139.662 281.759 139.434 280.412C130.564 241.889 114.734 196.561 93 181.086C113.627 167.662 141.117 143.292 141.117 143.292C141.117 143.292 145.348 139.864 143.69 134.381C129.149 77.7196 94.5163 73.2918 94.5163 73.2918V71.3267C123.292 45.8399 153.521 22.0248 185.055 0C185.055 0 187.779 29.8133 183.963 36.8042C165.495 52.6406 132.914 78.3629 132.914 78.3629C132.455 78.9166 132.164 79.5886 132.074 80.3007C131.985 81.0127 132.101 81.7354 132.408 82.3845C132.716 83.0335 133.203 83.5822 133.813 83.9664C134.422 84.3507 135.129 84.5547 135.851 84.5547C136.748 84.5416 137.614 84.2262 138.307 83.6601C145.505 78.0463 185.247 47.3484 185.247 47.3484Z" fill="#27AAE1"/>
<path d="M143.685 134.381C145.343 139.864 141.112 143.292 141.112 143.292C141.112 143.292 113.622 167.662 93 181.086C72.3783 167.662 44.8826 143.292 44.8826 143.292C44.8826 143.292 40.6521 139.864 42.31 134.381C56.8412 77.7196 91.4837 73.2918 91.4837 73.2918V129.204C90.3354 129.569 89.3562 130.33 88.7227 131.35C88.0891 132.37 87.843 133.581 88.0288 134.766C88.2145 135.95 88.8199 137.03 89.7357 137.809C90.6514 138.589 91.8172 139.017 93.0228 139.017C94.2283 139.017 95.3941 138.589 96.3099 137.809C97.2256 137.03 97.831 135.95 98.0168 134.766C98.2025 133.581 97.9564 132.37 97.3229 131.35C96.6893 130.33 95.7101 129.569 94.5618 129.204V73.2918C94.5618 73.2918 129.149 77.7196 143.685 134.381Z" fill="#1C75BC"/>
<path d="M91.484 71.3267V73.2918C91.484 73.2918 56.8668 77.7196 42.3305 134.381C40.6726 139.864 44.9031 143.292 44.9031 143.292C44.9031 143.292 72.3988 167.662 93.0205 181.086C71.2868 196.561 55.4566 241.899 46.5711 280.412C46.3487 281.759 44.9891 282.583 43.7052 282.583C41.9817 282.583 40.7282 280.965 40.7282 278.969C40.7282 278.969 40.7737 151.263 40.6726 139.864C36.6292 135.286 11.413 119.379 2.3354 110.825C-0.909487 100.155 0.8191 83.3636 0.8191 83.3636C0.8191 83.3636 19.9549 97.9084 27.2382 103.693C27.8399 104.13 28.5705 104.357 29.3155 104.336C30.1088 104.335 30.8817 104.087 31.525 103.625C32.1684 103.164 32.6498 102.513 32.9011 101.765C33.1525 101.017 33.1611 100.209 32.9259 99.4557C32.6906 98.7023 32.2233 98.0416 31.59 97.5666C31.59 97.5666 10.109 80.1772 2.04731 72.5178C-0.196824 65.7882 0.748339 47.3484 0.748339 47.3484C0.748339 47.3484 40.4856 78.0463 47.6931 83.6601C48.3871 84.2252 49.2527 84.5404 50.1495 84.5547C50.8699 84.5519 51.5747 84.3458 52.1819 83.9604C52.7892 83.575 53.274 83.0262 53.5799 82.3777C53.8859 81.7292 54.0005 81.0077 53.9104 80.297C53.8203 79.5863 53.5292 78.9156 53.071 78.3629C53.071 78.3629 20.5007 52.6406 2.02203 36.8042C-1.78389 29.8133 0.940404 0 0.940404 0C32.4739 22.0272 62.7051 45.8422 91.484 71.3267Z" fill="#27AAE1"/>
<path d="M58.2822 256.247C58.6034 255.971 58.941 255.714 59.2931 255.478C59.7217 255.176 60.169 254.901 60.6325 254.654C61.093 254.406 61.571 254.191 62.0629 254.011C62.3992 253.904 62.7229 253.76 63.0283 253.584C63.159 253.528 63.2662 253.428 63.3315 253.302C63.3618 253.219 63.2911 253.088 63.1192 252.91C63.0449 252.846 62.9963 252.757 62.9824 252.66C62.9685 252.564 62.9901 252.465 63.0434 252.383C64.2261 251.242 64.954 250.538 65.237 250.277C65.611 250.005 65.9092 249.92 66.1316 250.03C66.7265 250.376 67.2497 250.832 67.6732 251.372C67.8159 251.531 67.9184 251.722 67.972 251.928C68.0257 252.135 68.0289 252.351 67.9815 252.558C67.7445 253.097 67.3312 253.54 66.8089 253.815C66.3039 254.176 65.7233 254.418 65.1107 254.524C64.6507 254.579 64.0088 254.684 63.19 254.84C62.572 254.944 61.9622 255.092 61.3654 255.282C60.9085 255.454 60.4657 255.661 60.0411 255.901C59.6991 256.068 59.3839 256.285 59.1061 256.544C58.9503 256.584 58.7868 256.584 58.631 256.544C58.4876 256.482 58.3661 256.379 58.2822 256.247Z" fill="#231F20"/>
<path d="M64.054 274.547C64.0134 275.201 63.9307 275.852 63.8063 276.497C63.7114 277.085 63.5814 277.667 63.4171 278.241C63.273 278.669 63.1043 279.088 62.9117 279.497C62.6644 280.018 62.3824 280.521 62.0676 281.005C61.7175 281.536 61.2761 282.002 60.7636 282.382C60.2783 282.768 59.6766 282.98 59.0552 282.985C58.763 282.996 58.4764 282.903 58.2465 282.724C58.0043 282.516 57.8051 282.263 57.6602 281.98C57.5222 281.713 57.4429 281.42 57.4277 281.12C57.4277 281.043 57.4378 280.998 57.4581 280.985C57.4861 280.968 57.5169 280.956 57.549 280.949C57.6705 280.91 57.7818 280.844 57.8752 280.757C57.9686 280.671 58.0419 280.565 58.0899 280.447C58.2472 280.126 58.3676 279.789 58.4487 279.442C58.5432 279.027 58.6007 278.605 58.6206 278.18C58.6559 277.678 58.6711 277.271 58.6711 276.919V275.848C58.6711 275.481 58.6711 275.094 58.6711 274.697C58.7062 273.544 58.8245 272.396 59.0249 271.26C59.2878 270.064 59.6775 268.9 60.1874 267.787C60.2885 267.586 60.3643 267.485 60.43 267.495C60.4957 267.505 60.5109 267.561 60.4957 267.666C60.1562 269.166 60.0051 270.703 60.0459 272.24C60.0257 274.344 59.9835 275.738 59.9195 276.421C59.8623 277.09 59.7336 277.75 59.5354 278.391C59.276 279.27 58.8931 280.107 58.3982 280.879C58.736 280.879 59.0736 280.859 59.409 280.819C59.7352 280.781 60.0547 280.7 60.3593 280.578C60.6651 280.461 60.9476 280.291 61.1932 280.075C61.4722 279.824 61.6974 279.52 61.8553 279.18C62.0588 278.74 62.2033 278.276 62.285 277.798C62.4005 277.148 62.4564 276.489 62.4518 275.828C62.4518 275.265 62.4518 274.547 62.4518 273.677C62.4518 272.808 62.4518 272.003 62.5225 271.275C62.6225 270.374 62.8347 269.49 63.1543 268.641C63.5132 267.636 63.8619 266.701 64.1652 265.917C64.2208 265.792 64.2713 265.746 64.3067 265.781C64.3421 265.817 64.3471 265.998 64.3067 266.334C64.1618 267.235 64.0841 268.146 64.0742 269.058L64.054 274.547Z" fill="#231F20"/>
<path d="M70.6201 275.687C70.4785 275.738 70.3305 275.768 70.1804 275.778L69.7407 275.823C69.4612 275.825 69.1879 275.905 68.9522 276.054C68.4218 276.541 67.9564 277.093 67.5673 277.698C66.853 278.753 66.0392 279.281 65.1261 279.281C64.669 279.306 64.215 279.194 63.8235 278.958C63.432 278.722 63.1214 278.374 62.9325 277.959C62.5899 277.114 62.4381 276.205 62.4877 275.295C62.5148 274.255 62.7006 273.225 63.0386 272.24C63.3368 271.571 63.6148 271.235 63.8827 271.235C63.9383 271.235 64.004 271.285 64.0798 271.39V272.521C64.1248 272.948 64.2216 273.368 64.3679 273.773C64.5251 274.227 64.8156 274.624 65.2019 274.913C65.6641 275.197 66.2008 275.337 66.7435 275.315C67.1261 275.334 67.5082 275.27 67.8639 275.128C68.2197 274.987 68.5408 274.772 68.8056 274.496C69.0814 274.116 69.4455 273.807 69.867 273.597C70.0197 273.559 70.1794 273.559 70.332 273.597C70.4831 273.629 70.6374 273.645 70.792 273.642C71.2003 273.624 71.5898 273.466 71.8938 273.195C72.2419 272.883 72.5356 272.516 72.7632 272.109C72.7746 272.081 72.7918 272.055 72.8137 272.034C72.8347 272.01 72.8628 271.994 72.8938 271.988C72.9248 271.981 72.957 271.985 72.9856 271.998C73.1088 272.036 73.236 272.06 73.3647 272.069C73.4837 272.077 73.6019 272.043 73.6982 271.973C73.8409 271.864 73.9596 271.728 74.047 271.571C74.2121 271.302 74.3573 271.022 74.4817 270.732C74.603 270.38 74.7243 270.229 74.8405 270.29C74.9568 270.35 74.9315 270.496 74.8759 270.853C74.7394 271.523 74.5168 272.173 74.2138 272.788C74.0244 273.192 73.7545 273.555 73.4203 273.853C73.1119 274.096 72.7527 274.268 72.3689 274.356C72.1162 274.633 71.8407 274.888 71.5451 275.119C71.2614 275.346 70.9507 275.537 70.6201 275.687Z" fill="#231F20"/>
<path d="M76.9072 267.224L78.0394 264.158C78.1354 263.907 78.2163 263.781 78.282 263.776C78.3477 263.771 78.4235 263.846 78.3881 264.002C78.3305 264.3 78.2884 264.6 78.2618 264.902C78.2163 265.324 78.1859 265.656 78.1657 265.907C78.1354 266.329 78.1101 266.802 78.0849 267.324C78.0596 267.847 78.0444 268.39 78.0293 268.943C78.0141 269.496 78.0293 270.038 77.9888 270.561C77.9484 271.084 77.9534 271.566 77.9231 271.978C77.8858 273.045 77.7367 274.104 77.4783 275.14C77.2601 275.936 76.9796 276.714 76.6393 277.467C76.3158 278.18 76.0429 278.562 75.8205 278.607C75.7649 278.607 75.77 278.462 75.8458 278.16C75.9556 277.815 76.0401 277.462 76.0985 277.105C76.1693 276.682 76.235 276.23 76.2855 275.753C76.336 275.275 76.3765 274.778 76.4068 274.27C76.4371 273.762 76.4675 273.265 76.4826 272.838C76.4978 272.411 76.5382 271.772 76.5382 270.923C76.5382 270.074 76.5382 269.355 76.614 268.762C76.6501 268.239 76.7486 267.723 76.9072 267.224Z" fill="#231F20"/>
<path d="M77.6758 282.296L78.439 281.708C79.15 281.196 79.8132 280.621 80.4203 279.989C80.8168 279.644 81.1105 279.198 81.2694 278.698C81.3351 278.351 81.1329 277.899 80.673 277.351C80.1905 276.784 79.6406 276.278 79.0354 275.843C78.9953 275.818 78.9664 275.778 78.9545 275.733C78.9448 275.702 78.9448 275.668 78.9545 275.637L79.5358 274.31L80.3495 272.496C80.4019 272.371 80.4627 272.251 80.5315 272.134C80.582 272.039 80.6477 272.013 80.7235 272.064C81.0672 272.35 81.4109 272.657 81.7344 272.988C82.0811 273.326 82.3788 273.71 82.6189 274.129C82.886 274.648 83.0132 275.226 82.9879 275.808C82.9919 276.595 82.8603 277.377 82.5987 278.12C82.3247 278.921 81.9832 279.698 81.5777 280.442C81.4182 280.718 81.2338 280.978 81.0268 281.221C80.7867 281.479 80.496 281.686 80.1726 281.829C79.4009 282.143 78.613 282.417 77.8122 282.648C77.7635 282.669 77.7111 282.68 77.6581 282.68C77.6051 282.68 77.5526 282.669 77.5039 282.648C77.5039 282.648 77.5039 282.593 77.5039 282.533C77.5395 282.44 77.5988 282.359 77.6758 282.296Z" fill="#231F20"/>
<path d="M86.8544 266.058L88.032 263.012C88.1331 262.761 88.214 262.635 88.2797 262.635C88.3454 262.635 88.4212 262.711 88.3858 262.867C88.3231 263.162 88.2759 263.461 88.2443 263.761C88.1938 264.183 88.1533 264.515 88.1281 264.766C88.0977 265.183 88.0624 265.656 88.032 266.184C88.0017 266.711 87.9714 267.244 87.9512 267.802C87.9309 268.36 87.9057 268.892 87.8804 269.415C87.8551 269.938 87.8299 270.42 87.7945 270.832C87.7122 272.721 87.2481 274.574 86.4298 276.28C86.0912 276.994 85.8132 277.371 85.5908 277.411C85.5301 277.411 85.5453 277.266 85.6262 276.964C85.7376 276.62 85.8254 276.269 85.889 275.914C85.9698 275.491 86.0406 275.044 86.0962 274.562C86.1518 274.079 86.2074 273.587 86.2478 273.084C86.2883 272.581 86.3186 272.079 86.3439 271.652C86.3691 271.224 86.4146 270.586 86.4298 269.737C86.445 268.887 86.4753 268.169 86.541 267.581C86.5841 267.063 86.6893 266.551 86.8544 266.058Z" fill="#231F20"/>
<path d="M92.1615 272.27C91.8077 274.431 91.4893 276.039 91.2012 277.105C90.9931 277.931 90.7366 278.745 90.4329 279.542C90.2553 280.009 89.9989 280.443 89.6748 280.824C89.2364 281.209 88.719 281.496 88.1585 281.663C87.5568 281.89 86.9405 282.076 86.3136 282.221C86.0089 282.296 85.7 282.353 85.3887 282.392C85.3058 282.398 85.2234 282.375 85.1562 282.327C85.1208 282.286 85.1562 282.201 85.2421 282.06C85.528 281.717 85.8576 281.413 86.2226 281.156C86.7281 280.769 87.3093 280.291 87.9866 279.718C88.5413 279.267 89.0493 278.762 89.5029 278.21C89.8921 277.662 90.1938 277.056 90.3975 276.416C90.6553 275.662 90.903 274.868 91.1557 274.044C91.4084 273.22 91.5803 272.657 91.6915 272.36C91.8027 272.064 91.9138 271.923 92.0301 271.933C92.1463 271.943 92.207 272.064 92.1615 272.27ZM89.786 255.102C89.8517 255.343 89.8517 255.598 89.786 255.84C89.6983 256.125 89.5671 256.395 89.3968 256.639C89.2872 256.815 89.1656 256.983 89.0329 257.142C88.9015 257.293 88.77 257.439 88.6285 257.579C88.5683 257.645 88.5024 257.706 88.4314 257.76C88.3414 257.836 88.2469 257.907 88.1484 257.971C88.0611 258.031 87.9658 258.078 87.8653 258.112C87.7743 258.142 87.7086 258.132 87.6682 258.082C87.37 257.846 87.0768 257.604 86.7938 257.358C86.4956 257.104 86.1779 256.874 85.8436 256.67C85.7829 256.629 85.7576 256.589 85.7627 256.554C85.7715 256.494 85.794 256.438 85.8284 256.388L87.8047 253.373C87.8603 253.292 87.9159 253.252 87.9765 253.257C88.0428 253.265 88.1066 253.288 88.1635 253.322C88.3354 253.423 88.5038 253.534 88.669 253.654C88.839 253.776 88.9995 253.91 89.1491 254.056C89.2965 254.195 89.4271 254.35 89.5383 254.519C89.6541 254.697 89.7379 254.894 89.786 255.102Z" fill="#231F20"/>
<path d="M100.92 253.302C101.317 253.387 101.719 253.44 102.123 253.463C102.528 253.481 102.933 253.453 103.331 253.378C103.774 253.289 104.204 253.151 104.615 252.966C105.122 252.734 105.606 252.456 106.061 252.136C106.167 252.066 106.278 251.981 106.404 251.88L106.758 251.583C106.854 251.5 106.956 251.423 107.061 251.352C107.152 251.292 107.213 251.262 107.243 251.267C107.274 251.272 107.36 251.327 107.36 251.458C107.349 251.622 107.289 251.78 107.188 251.91C106.89 252.359 106.564 252.789 106.212 253.197C105.813 253.671 105.368 254.105 104.883 254.493C104.152 255.108 103.337 255.616 102.462 256.001C101.636 256.315 100.749 256.438 99.8691 256.358C99.4344 256.313 99.0503 256.257 98.7167 256.202C98.2679 256.134 97.8157 256.091 97.3622 256.072C96.8141 256.034 96.2639 256.099 95.7397 256.263C95.2704 256.407 94.8153 256.594 94.3801 256.82C94.325 256.83 94.2684 256.83 94.2133 256.82C94.1628 256.82 94.1274 256.79 94.1173 256.755C94.1072 256.72 94.1527 256.594 94.2942 256.378C94.5562 255.984 94.8689 255.626 95.2242 255.313C95.7332 254.842 96.2945 254.431 96.8972 254.086C97.4797 253.722 98.1208 253.46 98.7926 253.312C99.4963 253.191 100.216 253.187 100.92 253.302ZM95.1989 266.053L96.4827 263.037C96.5889 262.791 96.6798 262.67 96.7455 262.67C96.8112 262.67 96.882 262.746 96.8416 262.902C96.7675 263.195 96.7101 263.492 96.6697 263.791C96.604 264.213 96.5535 264.545 96.5231 264.796C96.4726 265.214 96.4221 265.681 96.3715 266.204C96.321 266.726 96.2805 267.269 96.235 267.822C96.1896 268.375 96.1542 268.908 96.1137 269.435C96.0733 269.963 96.0278 270.44 95.9773 270.842C95.8856 271.906 95.684 272.957 95.3758 273.979C95.1186 274.762 94.8009 275.525 94.4256 276.26C94.0617 276.961 93.7685 277.327 93.5461 277.361C93.4905 277.361 93.5057 277.21 93.5967 276.919C93.7214 276.577 93.8227 276.228 93.8999 275.873C93.996 275.456 94.0768 275.009 94.1527 274.531C94.2285 274.054 94.2942 273.561 94.3498 273.059C94.4054 272.556 94.4559 272.079 94.4964 271.632C94.5368 271.184 94.6025 270.566 94.648 269.722C94.6935 268.877 94.7491 268.159 94.8299 267.566C94.8943 267.051 95.0181 266.545 95.1989 266.058V266.053Z" fill="#231F20"/>
<path d="M101.987 275.702C101.976 276.307 101.877 276.906 101.694 277.482C101.267 278.891 100.482 280.167 99.414 281.186C98.9389 281.613 98.321 281.849 97.6804 281.849C96.6695 281.849 96.1641 281.298 96.1641 280.196C96.1707 279.777 96.2493 279.362 96.3966 278.969C96.5537 278.529 96.7606 278.107 97.0132 277.713C97.271 277.321 97.4883 276.989 97.6703 276.708L97.3367 276.612H97.2356C97.2086 276.512 97.7444 275.419 98.8429 273.335C99.0046 273.024 99.1411 272.868 99.2472 272.868C99.4677 272.901 99.6783 272.981 99.8638 273.104C100.18 273.278 100.481 273.478 100.764 273.702C101.072 273.934 101.343 274.212 101.567 274.526C101.802 274.878 101.946 275.282 101.987 275.702ZM100.233 278.562C100.236 278.383 100.198 278.205 100.121 278.043C100.044 277.881 99.9298 277.738 99.788 277.627C99.5933 277.465 99.3834 277.322 99.1613 277.2C98.9524 277.069 98.7212 276.977 98.479 276.929C98.3475 276.929 98.115 277.165 97.7815 277.627C97.4999 277.957 97.3239 278.363 97.276 278.793C97.276 279.401 97.6703 279.703 98.4689 279.703C98.8763 279.691 99.2729 279.57 99.6162 279.351C100.031 279.12 100.233 278.859 100.233 278.562Z" fill="#231F20"/>
<path d="M106.37 272.571C106.331 273.297 106.142 274.007 105.814 274.657C105.51 275.23 105.167 275.517 104.803 275.517C104.803 275.205 104.904 274.24 105.106 272.622C105.308 271.003 105.461 269.844 105.566 269.144C105.667 268.44 105.783 267.701 105.915 266.917C106.046 266.133 106.172 265.495 106.299 265.013C106.435 264.61 106.587 264.208 106.749 263.796C106.91 263.384 107.077 262.987 107.254 262.585C107.37 262.404 107.441 262.434 107.476 262.67C107.269 264.027 107.082 265.435 106.905 266.897C106.728 268.36 106.617 269.41 106.557 270.033C106.496 270.657 106.466 271.038 106.466 271.134C106.39 271.807 106.37 272.285 106.37 272.571Z" fill="#231F20"/>
<path d="M112.329 274.662C112.222 274.662 112.106 274.933 111.975 275.471C111.843 276.009 111.692 276.476 111.606 276.728C111.226 277.837 110.751 278.911 110.186 279.939C109.868 280.505 109.404 280.977 108.843 281.308C108.282 281.638 107.643 281.814 106.991 281.819C106.605 281.822 106.225 281.722 105.891 281.528C105.557 281.334 105.283 281.055 105.096 280.718C104.575 279.759 104.325 278.677 104.373 277.587C104.373 277.557 104.424 277.004 104.53 275.924C104.57 275.275 104.677 274.631 104.848 274.004C104.915 273.44 105.122 272.901 105.45 272.436L106.071 271.571C106.358 271.337 108.475 269.264 112.425 265.354C116.374 261.444 118.887 258.697 119.966 257.112C120.178 256.777 120.32 256.609 120.39 256.609C120.441 256.609 120.446 256.72 120.39 256.886C120.299 257.34 120.167 257.786 119.996 258.218C119.591 259.157 119.102 260.058 118.535 260.911C118.053 261.705 114.662 265.276 108.361 271.621C108.544 271.656 108.724 271.708 108.897 271.777C109.582 272.002 110.226 272.333 110.807 272.757C111.293 273.184 111.717 273.676 112.066 274.22L112.167 274.416C112.214 274.502 112.268 274.585 112.329 274.662ZM110.605 275.32C110.605 274.773 110.16 274.391 109.271 274.17C108.739 274.037 108.192 273.975 107.643 273.984C107.334 273.97 107.025 274.008 106.728 274.094C106.468 274.235 106.256 274.451 106.122 274.714C105.987 274.977 105.936 275.274 105.975 275.567C105.967 276.056 106.087 276.54 106.324 276.969C106.474 277.234 106.695 277.451 106.964 277.596C107.232 277.741 107.536 277.807 107.84 277.788C108.214 277.795 108.585 277.722 108.928 277.574C109.27 277.425 109.577 277.205 109.827 276.929C110.281 276.51 110.559 275.935 110.605 275.32ZM118 258.328C117.625 258.835 117.211 259.313 116.761 259.755C116.165 260.374 115.159 261.369 113.754 262.736C113.703 262.761 113.703 262.686 113.754 262.51C113.839 262.268 113.949 262.035 114.082 261.816C114.419 261.441 114.91 260.915 115.553 260.238C116.197 259.561 117.103 258.656 118.273 257.524C118.485 257.348 118.399 257.614 118 258.328Z" fill="#231F20"/>
<path d="M110.094 256.82C110.392 257.021 110.7 257.222 111.014 257.418C111.05 257.44 111.089 257.456 111.13 257.464C111.177 257.481 111.229 257.481 111.277 257.464C111.348 257.436 111.415 257.397 111.474 257.348C111.571 257.269 111.656 257.176 111.726 257.072C111.881 256.893 112.019 256.701 112.141 256.499C112.27 256.292 112.388 256.079 112.495 255.86C112.626 255.611 112.72 255.343 112.773 255.066C112.815 254.828 112.788 254.582 112.697 254.358C112.635 254.174 112.539 254.004 112.414 253.855C112.287 253.709 112.146 253.574 111.994 253.453C111.836 253.332 111.667 253.226 111.489 253.136C111.307 253.041 111.13 252.961 110.953 252.88C110.898 252.848 110.835 252.832 110.771 252.835C110.716 252.835 110.665 252.875 110.615 252.956L109.098 256.021C109.07 256.065 109.054 256.115 109.053 256.167C109.063 256.215 109.09 256.258 109.129 256.288C109.462 256.444 109.784 256.622 110.094 256.82Z" fill="#231F20"/>
<path d="M110.69 259.781C110.707 259.826 110.733 259.867 110.766 259.901C111.105 260.059 111.431 260.243 111.742 260.449C112.045 260.65 112.348 260.851 112.662 261.042C112.698 261.064 112.737 261.081 112.778 261.092C112.826 261.104 112.876 261.104 112.924 261.092C112.996 261.062 113.064 261.023 113.127 260.977C113.222 260.895 113.306 260.802 113.379 260.7C113.53 260.52 113.667 260.329 113.789 260.127C113.91 259.931 114.031 259.715 114.148 259.489C114.28 259.238 114.372 258.969 114.421 258.69C114.463 258.453 114.436 258.209 114.345 257.986C114.286 257.802 114.189 257.631 114.062 257.484C113.938 257.336 113.799 257.201 113.647 257.082C113.49 256.958 113.32 256.851 113.142 256.76C112.965 256.67 112.783 256.584 112.636 256.509C112.579 256.478 112.515 256.46 112.449 256.459C112.416 256.466 112.385 256.481 112.358 256.503C112.332 256.525 112.311 256.553 112.298 256.584L110.781 259.645C110.739 259.681 110.707 259.728 110.69 259.781Z" fill="#231F20"/>
<path d="M120.264 269.109C120.187 269.162 120.104 269.206 120.016 269.239C119.961 269.259 119.902 269.264 119.844 269.255C119.787 269.245 119.733 269.221 119.688 269.184C119.617 269.154 119.566 269.144 119.541 269.159C119.502 269.195 119.476 269.243 119.465 269.295C119.374 269.624 119.212 269.929 118.99 270.189C118.825 270.365 118.603 270.479 118.363 270.511C118.315 270.52 118.265 270.52 118.217 270.511C118.167 270.495 118.123 270.465 118.09 270.425C118.004 270.35 117.929 270.38 117.863 270.511C117.757 270.763 117.62 271.001 117.453 271.219C117.301 271.404 117.107 271.551 116.887 271.647C116.774 271.692 116.651 271.711 116.529 271.702C116.439 271.691 116.351 271.67 116.266 271.642C116.068 271.571 115.852 271.571 115.654 271.642C115.44 271.7 115.245 271.812 115.088 271.968C114.911 272.149 114.739 272.325 114.583 272.471C114.457 272.607 114.322 272.735 114.178 272.853C114.118 273.381 114.583 273.778 114.79 274.235C114.845 274.171 114.904 274.111 114.967 274.054C115.097 273.95 115.244 273.869 115.401 273.813C115.574 273.751 115.76 273.73 115.942 273.752C116.183 273.773 116.425 273.726 116.64 273.617C116.862 273.502 117.061 273.347 117.226 273.159C117.371 272.97 117.541 272.801 117.731 272.657C117.837 272.581 117.958 272.528 118.085 272.501C118.245 272.461 118.39 272.377 118.505 272.26C118.686 272.118 118.855 271.961 119.01 271.792C119.151 271.634 119.299 271.483 119.455 271.34C119.657 271.229 119.844 271.119 120.006 271.018C120.177 270.91 120.334 270.78 120.471 270.631C120.52 270.373 120.537 270.11 120.521 269.847C120.492 269.585 120.404 269.333 120.264 269.109Z" fill="#231F20"/>
<path d="M107.592 260.675C107.769 260.766 107.951 260.866 108.138 260.972L108.229 261.027L109.022 261.53L109.154 261.625L109.477 261.821C109.519 261.852 109.567 261.872 109.619 261.881C109.68 261.89 109.742 261.878 109.795 261.846C109.885 261.8 109.964 261.737 110.028 261.66L110.084 261.605L110.195 261.469C110.26 261.396 110.32 261.318 110.377 261.238L110.549 260.997L110.675 260.791C110.717 260.725 110.754 260.656 110.786 260.585L110.963 260.258L111.084 260.012L111.14 259.856C111.147 259.835 111.147 259.812 111.14 259.791C111.137 259.769 111.137 259.747 111.14 259.725V259.65L111.175 259.499C111.17 259.486 111.17 259.472 111.175 259.459C111.178 259.453 111.179 259.447 111.179 259.441C111.179 259.435 111.178 259.429 111.175 259.424C111.196 259.28 111.196 259.135 111.175 258.992C111.179 258.98 111.179 258.968 111.175 258.956C111.175 258.945 111.175 258.933 111.175 258.921C111.178 258.905 111.178 258.888 111.175 258.871C111.173 258.856 111.173 258.841 111.175 258.826C111.168 258.801 111.168 258.775 111.175 258.75L111.125 258.645C111.104 258.611 111.086 258.575 111.069 258.539L111.014 258.439L110.983 258.388L110.852 258.208L110.766 258.117C110.692 258.04 110.612 257.968 110.528 257.901C110.447 257.836 110.357 257.77 110.26 257.705L110.109 257.614L109.77 257.434L109.427 257.273C109.41 257.279 109.392 257.279 109.376 257.273H109.31H109.285C109.209 257.273 109.149 257.308 109.098 257.403L107.551 260.454C107.522 260.503 107.506 260.558 107.506 260.615C107.527 260.644 107.557 260.665 107.592 260.675Z" fill="#231F20"/>
<path d="M119.789 271.179C119.694 270.932 119.632 270.674 119.607 270.41C119.585 270.14 119.648 269.869 119.789 269.636C119.893 269.55 119.993 269.458 120.087 269.36C120.193 269.249 120.294 269.134 120.395 269.023C120.488 268.912 120.574 268.797 120.653 268.676C120.722 268.588 120.772 268.488 120.8 268.38C120.826 268.236 120.836 268.089 120.83 267.943V267.44V266.937C120.835 266.795 120.862 266.654 120.911 266.52C120.982 266.349 121.061 266.181 121.148 266.018L122.407 263.47C122.447 263.379 122.493 263.359 122.548 263.404C122.576 263.432 122.597 263.465 122.611 263.502C122.625 263.538 122.631 263.577 122.629 263.615C122.57 263.891 122.536 264.172 122.528 264.455C122.528 264.746 122.528 265.038 122.528 265.324C122.528 265.611 122.528 265.907 122.493 266.194C122.478 266.475 122.438 266.754 122.372 267.028C122.295 267.417 122.174 267.796 122.013 268.159C121.84 268.56 121.636 268.946 121.401 269.315C121.175 269.677 120.924 270.023 120.648 270.35C120.421 270.635 120.163 270.894 119.88 271.124L119.789 271.179ZM127.765 258.167C127.833 258.409 127.833 258.665 127.765 258.906C127.679 259.192 127.548 259.461 127.375 259.705C127.266 259.881 127.144 260.049 127.011 260.208C126.885 260.359 126.749 260.504 126.612 260.645C126.552 260.711 126.486 260.772 126.415 260.826C126.324 260.901 126.228 260.972 126.132 261.037C126.042 261.096 125.946 261.143 125.844 261.178C125.812 261.192 125.776 261.197 125.741 261.192C125.706 261.187 125.673 261.171 125.647 261.148L124.772 260.424C124.474 260.17 124.156 259.94 123.822 259.735C123.767 259.695 123.736 259.655 123.741 259.62C123.753 259.56 123.777 259.504 123.812 259.454L125.783 256.438C125.839 256.358 125.899 256.318 125.955 256.323C126.022 256.329 126.086 256.352 126.142 256.388C126.314 256.489 126.486 256.599 126.648 256.72C126.817 256.843 126.977 256.977 127.128 257.122C127.274 257.262 127.404 257.417 127.517 257.584C127.638 257.762 127.727 257.959 127.78 258.167H127.765Z" fill="#231F20"/>
<path d="M123.372 269.496L124.651 266.48C124.762 266.234 124.848 266.108 124.914 266.108C124.979 266.108 125.05 266.189 125.01 266.344C124.969 266.5 124.903 266.812 124.838 267.234C124.772 267.656 124.721 267.983 124.691 268.239C124.641 268.656 124.59 269.129 124.545 269.651C124.499 270.174 124.449 270.712 124.408 271.265C124.368 271.817 124.322 272.355 124.282 272.878C124.241 273.401 124.196 273.883 124.145 274.29C124.053 275.353 123.851 276.404 123.544 277.426C123.286 278.21 122.968 278.973 122.594 279.708C122.23 280.407 121.936 280.774 121.714 280.804C121.659 280.804 121.674 280.658 121.765 280.361C121.889 280.022 121.991 279.674 122.068 279.321C122.164 278.904 122.245 278.457 122.321 277.979C122.396 277.502 122.462 277.009 122.518 276.507C122.573 276.004 122.624 275.527 122.664 275.074C122.705 274.622 122.776 274.014 122.816 273.164C122.856 272.315 122.917 271.601 122.998 271.013C123.063 270.495 123.189 269.985 123.372 269.496Z" fill="#231F20"/>
<path d="M125.014 281.447L125.777 280.859C126.488 280.346 127.152 279.771 127.759 279.14C128.154 278.796 128.447 278.351 128.608 277.854C128.673 277.502 128.471 277.049 128.011 276.502C127.526 275.937 126.977 275.431 126.374 274.994C126.334 274.969 126.305 274.929 126.293 274.883C126.283 274.852 126.283 274.819 126.293 274.788L126.874 273.461L127.688 271.647C127.74 271.522 127.801 271.401 127.87 271.285C127.92 271.189 127.986 271.169 128.062 271.214C128.406 271.501 128.749 271.812 129.073 272.144C129.421 272.481 129.718 272.865 129.957 273.285C130.225 273.801 130.352 274.378 130.326 274.959C130.331 275.746 130.199 276.528 129.937 277.271C129.652 278.066 129.301 278.836 128.886 279.572C128.741 279.844 128.572 280.101 128.38 280.341C128.142 280.601 127.851 280.809 127.526 280.949C126.755 281.266 125.967 281.54 125.166 281.769C125.117 281.79 125.065 281.8 125.012 281.8C124.959 281.8 124.906 281.79 124.857 281.769C124.857 281.769 124.857 281.713 124.857 281.653C124.893 281.573 124.947 281.503 125.014 281.447Z" fill="#231F20"/>
<path d="M115.093 273.717C114.588 274.954 114.168 276.275 110.711 274.989L115.093 273.717Z" fill="#231F20"/>
<path d="M114.613 273.486C114.234 274.089 108.851 272.953 107.835 272.481" stroke="#231F20" stroke-width="3" stroke-miterlimit="10"/>
<path d="M110.812 274.411C110.812 274.697 111.317 274.913 111.999 274.913C112.682 274.913 113.182 274.682 113.182 274.411C113.182 274.139 112.651 273.908 111.999 273.908C111.347 273.908 110.812 274.099 110.812 274.411Z" fill="#231F20"/>
<path d="M59.0804 256.544C58.575 257.047 57.2507 257.449 59.0804 258.353C65.9998 261.575 94.1576 259.861 101.987 259.022C104.903 259.348 101.143 260.66 101.143 260.66C101.143 260.66 72.3329 266.078 56.998 261.665C53.647 260.434 57.458 256.891 58.2818 256.237L59.0804 256.544Z" fill="#231F20"/>
</g>
<defs>
<clipPath id="clip0_37_548">
<rect width="186" height="283" fill="white"/>
</clipPath>
</defs>
</svg>
